<mxfile host="app.diagrams.net" agent="Mozilla/5.0 (X11; Ubuntu; Linux x86_64; rv:132.0) Gecko/20100101 Firefox/132.0" version="26.0.7">
  <diagram name="Page-1" id="OkS2C6FRnBjVyo28-ZCM">
    <mxGraphModel dx="3252" dy="1642" grid="0" gridSize="10" guides="1" tooltips="1" connect="1" arrows="1" fold="1" page="1" pageScale="1" pageWidth="2339" pageHeight="3300" math="0" shadow="0">
      <root>
        <mxCell id="0" />
        <mxCell id="1" parent="0" />
        <mxCell id="4zgrldXNc7t2MQxLVz2h-1" value="&lt;font style=&quot;font-size: 19px;&quot;&gt;&lt;b&gt;10&amp;nbsp; 44&amp;nbsp; 32&amp;nbsp; 21&amp;nbsp; 12&amp;nbsp; 7&amp;nbsp; 2&lt;/b&gt;&lt;/font&gt;" style="text;html=1;align=center;verticalAlign=middle;whiteSpace=wrap;rounded=0;" vertex="1" parent="1">
          <mxGeometry x="787" y="145" width="280" height="30" as="geometry" />
        </mxCell>
        <mxCell id="4zgrldXNc7t2MQxLVz2h-2" value="Pivot: arr [arr len / 2]" style="text;html=1;align=center;verticalAlign=middle;whiteSpace=wrap;rounded=0;" vertex="1" parent="1">
          <mxGeometry x="81" y="460" width="134" height="30" as="geometry" />
        </mxCell>
        <mxCell id="4zgrldXNc7t2MQxLVz2h-3" value="" style="endArrow=classic;html=1;rounded=0;strokeWidth=2;" edge="1" parent="1">
          <mxGeometry width="50" height="50" relative="1" as="geometry">
            <mxPoint x="938" y="247" as="sourcePoint" />
            <mxPoint x="938" y="185" as="targetPoint" />
          </mxGeometry>
        </mxCell>
        <mxCell id="4zgrldXNc7t2MQxLVz2h-4" value="&lt;font style=&quot;font-size: 18px;&quot;&gt;&lt;b&gt;P&lt;/b&gt;&lt;/font&gt;" style="text;html=1;align=center;verticalAlign=middle;whiteSpace=wrap;rounded=0;" vertex="1" parent="1">
          <mxGeometry x="929" y="255" width="19" height="24" as="geometry" />
        </mxCell>
        <mxCell id="4zgrldXNc7t2MQxLVz2h-11" value="&lt;font style=&quot;font-size: 19px;&quot;&gt;&lt;b&gt;10&amp;nbsp; 2&amp;nbsp; 7 12&lt;br&gt;&lt;/b&gt;&lt;/font&gt;" style="text;html=1;align=center;verticalAlign=middle;whiteSpace=wrap;rounded=0;" vertex="1" parent="1">
          <mxGeometry x="330" y="679" width="100" height="30" as="geometry" />
        </mxCell>
        <mxCell id="4zgrldXNc7t2MQxLVz2h-12" value="&lt;font style=&quot;font-size: 19px;&quot;&gt;&lt;b&gt;44&amp;nbsp; 32&amp;nbsp; 21&lt;br&gt;&lt;/b&gt;&lt;/font&gt;" style="text;html=1;align=center;verticalAlign=middle;whiteSpace=wrap;rounded=0;" vertex="1" parent="1">
          <mxGeometry x="546" y="679" width="100" height="30" as="geometry" />
        </mxCell>
        <mxCell id="4zgrldXNc7t2MQxLVz2h-17" value="" style="endArrow=classic;html=1;rounded=0;" edge="1" parent="1">
          <mxGeometry width="50" height="50" relative="1" as="geometry">
            <mxPoint x="392" y="735" as="sourcePoint" />
            <mxPoint x="392" y="705" as="targetPoint" />
          </mxGeometry>
        </mxCell>
        <mxCell id="4zgrldXNc7t2MQxLVz2h-18" value="&lt;b&gt;P&lt;/b&gt;" style="text;html=1;align=center;verticalAlign=middle;whiteSpace=wrap;rounded=0;" vertex="1" parent="1">
          <mxGeometry x="384" y="731" width="19" height="24" as="geometry" />
        </mxCell>
        <mxCell id="4zgrldXNc7t2MQxLVz2h-19" value="" style="endArrow=classic;html=1;rounded=0;" edge="1" parent="1">
          <mxGeometry width="50" height="50" relative="1" as="geometry">
            <mxPoint x="394" y="783" as="sourcePoint" />
            <mxPoint x="518" y="861" as="targetPoint" />
          </mxGeometry>
        </mxCell>
        <mxCell id="4zgrldXNc7t2MQxLVz2h-20" value="FIND ARR[i] max &amp;gt; pivot" style="text;html=1;align=center;verticalAlign=middle;resizable=0;points=[];autosize=1;strokeColor=none;fillColor=none;" vertex="1" parent="1">
          <mxGeometry x="318" y="753" width="149" height="26" as="geometry" />
        </mxCell>
        <mxCell id="4zgrldXNc7t2MQxLVz2h-21" value="&lt;b&gt;&lt;span style=&quot;color: rgb(255, 0, 0);&quot;&gt;&lt;span style=&quot;color: rgb(255, 15, 31);&quot;&gt;P&lt;/span&gt;USH A&lt;/span&gt;&lt;/b&gt;" style="text;html=1;align=center;verticalAlign=middle;whiteSpace=wrap;rounded=0;" vertex="1" parent="1">
          <mxGeometry x="473" y="788" width="60" height="30" as="geometry" />
        </mxCell>
        <mxCell id="4zgrldXNc7t2MQxLVz2h-22" value="&lt;font style=&quot;font-size: 19px;&quot;&gt;&lt;b&gt;2&amp;nbsp; 7&lt;br&gt;&lt;/b&gt;&lt;/font&gt;" style="text;html=1;align=center;verticalAlign=middle;whiteSpace=wrap;rounded=0;" vertex="1" parent="1">
          <mxGeometry x="342" y="881" width="100" height="30" as="geometry" />
        </mxCell>
        <mxCell id="4zgrldXNc7t2MQxLVz2h-23" value="&amp;nbsp; &lt;font style=&quot;font-size: 19px;&quot;&gt;&lt;b&gt;&lt;span style=&quot;color: rgb(204, 0, 0);&quot;&gt;10 12&lt;/span&gt; &lt;/b&gt;&lt;/font&gt;&lt;font style=&quot;font-size: 19px;&quot;&gt;&lt;b&gt;44&amp;nbsp; 32&amp;nbsp; 21&lt;br&gt;&lt;/b&gt;&lt;/font&gt;" style="text;html=1;align=center;verticalAlign=middle;whiteSpace=wrap;rounded=0;" vertex="1" parent="1">
          <mxGeometry x="543" y="881" width="161" height="30" as="geometry" />
        </mxCell>
        <mxCell id="4zgrldXNc7t2MQxLVz2h-29" value="&amp;nbsp;&amp;nbsp;&lt;font style=&quot;font-size: 19px; color: rgb(255, 38, 182);&quot;&gt;&lt;b&gt; &lt;/b&gt;&lt;/font&gt;&lt;font style=&quot;font-size: 19px;&quot;&gt;&lt;b&gt;44&amp;nbsp; 32&amp;nbsp; 21&lt;br&gt;&lt;/b&gt;&lt;/font&gt;" style="text;html=1;align=center;verticalAlign=middle;whiteSpace=wrap;rounded=0;" vertex="1" parent="1">
          <mxGeometry x="529" y="1061" width="189" height="30" as="geometry" />
        </mxCell>
        <mxCell id="4zgrldXNc7t2MQxLVz2h-30" value="&lt;font style=&quot;font-size: 19px;&quot;&gt;&lt;b&gt;7&amp;nbsp; 2&lt;br&gt;&lt;/b&gt;&lt;/font&gt;" style="text;html=1;align=center;verticalAlign=middle;whiteSpace=wrap;rounded=0;" vertex="1" parent="1">
          <mxGeometry x="345" y="1059" width="100" height="30" as="geometry" />
        </mxCell>
        <mxCell id="4zgrldXNc7t2MQxLVz2h-32" value="" style="endArrow=classic;html=1;rounded=0;exitX=0.487;exitY=0.994;exitDx=0;exitDy=0;exitPerimeter=0;" edge="1" parent="1">
          <mxGeometry width="50" height="50" relative="1" as="geometry">
            <mxPoint x="548" y="1131" as="sourcePoint" />
            <mxPoint x="458" y="1233" as="targetPoint" />
            <Array as="points">
              <mxPoint x="535" y="1146" />
            </Array>
          </mxGeometry>
        </mxCell>
        <mxCell id="4zgrldXNc7t2MQxLVz2h-33" value="&lt;b&gt;&lt;span style=&quot;color: rgb(22, 255, 38);&quot;&gt;PUSH B&lt;/span&gt;&lt;/b&gt;" style="text;html=1;align=center;verticalAlign=middle;whiteSpace=wrap;rounded=0;" vertex="1" parent="1">
          <mxGeometry x="469.5" y="1117" width="60" height="30" as="geometry" />
        </mxCell>
        <mxCell id="4zgrldXNc7t2MQxLVz2h-34" value="&lt;font style=&quot;font-size: 19px;&quot;&gt;&lt;b&gt;&lt;span style=&quot;color: rgb(255, 0, 0);&quot;&gt;12 10&lt;/span&gt; 7 2 &lt;br&gt;&lt;/b&gt;&lt;/font&gt;" style="text;html=1;align=center;verticalAlign=middle;whiteSpace=wrap;rounded=0;" vertex="1" parent="1">
          <mxGeometry x="340.5" y="1245" width="100" height="30" as="geometry" />
        </mxCell>
        <mxCell id="4zgrldXNc7t2MQxLVz2h-35" value="&lt;b&gt;&lt;span style=&quot;color: rgb(51, 10, 255);&quot;&gt;&lt;font style=&quot;font-size: 23px;&quot;&gt;STACK B&lt;/font&gt;&lt;/span&gt;&lt;/b&gt;" style="text;html=1;align=center;verticalAlign=middle;whiteSpace=wrap;rounded=0;" vertex="1" parent="1">
          <mxGeometry x="300" y="542" width="173" height="59" as="geometry" />
        </mxCell>
        <mxCell id="4zgrldXNc7t2MQxLVz2h-36" value="&lt;b&gt;&lt;span style=&quot;color: rgb(51, 10, 255);&quot;&gt;&lt;font style=&quot;font-size: 23px;&quot;&gt;STACK A&lt;br&gt;&lt;/font&gt;&lt;/span&gt;&lt;/b&gt;" style="text;html=1;align=center;verticalAlign=middle;whiteSpace=wrap;rounded=0;" vertex="1" parent="1">
          <mxGeometry x="522" y="542" width="173" height="59" as="geometry" />
        </mxCell>
        <mxCell id="4zgrldXNc7t2MQxLVz2h-38" value="TRAITEMENT DU PREMIER SOUS ENSEMBLE" style="text;html=1;align=center;verticalAlign=middle;whiteSpace=wrap;rounded=0;" vertex="1" parent="1">
          <mxGeometry x="322" y="345" width="370.5" height="30" as="geometry" />
        </mxCell>
        <mxCell id="4zgrldXNc7t2MQxLVz2h-47" value="&lt;font style=&quot;font-size: 19px;&quot;&gt;&lt;b&gt;44&amp;nbsp; 32&amp;nbsp; 21&lt;br&gt;&lt;/b&gt;&lt;/font&gt;" style="text;html=1;align=center;verticalAlign=middle;whiteSpace=wrap;rounded=0;" vertex="1" parent="1">
          <mxGeometry x="1218" y="669" width="100" height="30" as="geometry" />
        </mxCell>
        <mxCell id="4zgrldXNc7t2MQxLVz2h-48" value="" style="endArrow=classic;html=1;rounded=0;" edge="1" parent="1">
          <mxGeometry width="50" height="50" relative="1" as="geometry">
            <mxPoint x="1271" y="731" as="sourcePoint" />
            <mxPoint x="1271" y="701" as="targetPoint" />
          </mxGeometry>
        </mxCell>
        <mxCell id="4zgrldXNc7t2MQxLVz2h-49" value="&lt;b&gt;P&lt;/b&gt;" style="text;html=1;align=center;verticalAlign=middle;whiteSpace=wrap;rounded=0;" vertex="1" parent="1">
          <mxGeometry x="1263" y="727" width="19" height="24" as="geometry" />
        </mxCell>
        <mxCell id="4zgrldXNc7t2MQxLVz2h-50" value="" style="endArrow=classic;html=1;rounded=0;" edge="1" parent="1">
          <mxGeometry width="50" height="50" relative="1" as="geometry">
            <mxPoint x="1273" y="779" as="sourcePoint" />
            <mxPoint x="1397" y="857" as="targetPoint" />
          </mxGeometry>
        </mxCell>
        <mxCell id="4zgrldXNc7t2MQxLVz2h-51" value="IF ARR[i] &amp;lt; pivot" style="text;html=1;align=center;verticalAlign=middle;resizable=0;points=[];autosize=1;strokeColor=none;fillColor=none;" vertex="1" parent="1">
          <mxGeometry x="1218" y="749" width="106" height="26" as="geometry" />
        </mxCell>
        <mxCell id="4zgrldXNc7t2MQxLVz2h-52" value="&lt;b&gt;&lt;span style=&quot;color: rgb(255, 0, 0);&quot;&gt;&lt;span style=&quot;color: rgb(255, 15, 31);&quot;&gt;P&lt;/span&gt;USH B&lt;br&gt;&lt;/span&gt;&lt;/b&gt;" style="text;html=1;align=center;verticalAlign=middle;whiteSpace=wrap;rounded=0;" vertex="1" parent="1">
          <mxGeometry x="1352" y="784" width="60" height="30" as="geometry" />
        </mxCell>
        <mxCell id="4zgrldXNc7t2MQxLVz2h-54" value="&amp;nbsp;&lt;font style=&quot;font-size: 19px;&quot;&gt;&lt;b&gt;44&amp;nbsp; 32&lt;br&gt;&lt;/b&gt;&lt;/font&gt;" style="text;html=1;align=center;verticalAlign=middle;whiteSpace=wrap;rounded=0;" vertex="1" parent="1">
          <mxGeometry x="1208" y="861" width="126" height="30" as="geometry" />
        </mxCell>
        <mxCell id="4zgrldXNc7t2MQxLVz2h-57" value="&lt;b&gt;&lt;span style=&quot;color: rgb(255, 128, 0);&quot;&gt;SWAP&lt;/span&gt;&lt;/b&gt;" style="text;html=1;align=center;verticalAlign=middle;resizable=0;points=[];autosize=1;strokeColor=none;fillColor=none;" vertex="1" parent="1">
          <mxGeometry x="1244" y="925.5" width="54" height="26" as="geometry" />
        </mxCell>
        <mxCell id="4zgrldXNc7t2MQxLVz2h-58" value="" style="endArrow=classic;html=1;rounded=0;" edge="1" parent="1">
          <mxGeometry width="50" height="50" relative="1" as="geometry">
            <mxPoint x="1271.5" y="951.5" as="sourcePoint" />
            <mxPoint x="1272" y="1016.5" as="targetPoint" />
          </mxGeometry>
        </mxCell>
        <mxCell id="4zgrldXNc7t2MQxLVz2h-62" value="" style="endArrow=classic;html=1;rounded=0;exitX=0.487;exitY=0.994;exitDx=0;exitDy=0;exitPerimeter=0;" edge="1" parent="1">
          <mxGeometry width="50" height="50" relative="1" as="geometry">
            <mxPoint x="1427" y="1127" as="sourcePoint" />
            <mxPoint x="1337" y="1229" as="targetPoint" />
            <Array as="points">
              <mxPoint x="1414" y="1142" />
            </Array>
          </mxGeometry>
        </mxCell>
        <mxCell id="4zgrldXNc7t2MQxLVz2h-63" value="&lt;b&gt;&lt;span style=&quot;color: rgb(22, 255, 38);&quot;&gt;PUSH A&lt;br&gt;&lt;/span&gt;&lt;/b&gt;" style="text;html=1;align=center;verticalAlign=middle;whiteSpace=wrap;rounded=0;" vertex="1" parent="1">
          <mxGeometry x="1348.5" y="1113" width="60" height="30" as="geometry" />
        </mxCell>
        <mxCell id="4zgrldXNc7t2MQxLVz2h-64" value="&lt;font style=&quot;font-size: 19px;&quot;&gt;&lt;b&gt;21 32 44&lt;br&gt;&lt;/b&gt;&lt;/font&gt;" style="text;html=1;align=center;verticalAlign=middle;whiteSpace=wrap;rounded=0;" vertex="1" parent="1">
          <mxGeometry x="1219.5" y="1241" width="100" height="30" as="geometry" />
        </mxCell>
        <mxCell id="4zgrldXNc7t2MQxLVz2h-65" value="&lt;b&gt;&lt;span style=&quot;color: rgb(51, 10, 255);&quot;&gt;&lt;font style=&quot;font-size: 23px;&quot;&gt;STACK A&lt;br&gt;&lt;/font&gt;&lt;/span&gt;&lt;/b&gt;" style="text;html=1;align=center;verticalAlign=middle;whiteSpace=wrap;rounded=0;" vertex="1" parent="1">
          <mxGeometry x="1170" y="529" width="173" height="59" as="geometry" />
        </mxCell>
        <mxCell id="4zgrldXNc7t2MQxLVz2h-66" value="&lt;b&gt;&lt;span style=&quot;color: rgb(51, 10, 255);&quot;&gt;&lt;font style=&quot;font-size: 23px;&quot;&gt;STACK B&lt;br&gt;&lt;/font&gt;&lt;/span&gt;&lt;/b&gt;" style="text;html=1;align=center;verticalAlign=middle;whiteSpace=wrap;rounded=0;" vertex="1" parent="1">
          <mxGeometry x="1377" y="533" width="173" height="59" as="geometry" />
        </mxCell>
        <mxCell id="4zgrldXNc7t2MQxLVz2h-67" value="TRAITEMENT DU SECOND SOUS ENSEMBLE" style="text;html=1;align=center;verticalAlign=middle;whiteSpace=wrap;rounded=0;" vertex="1" parent="1">
          <mxGeometry x="1201" y="341" width="370.5" height="30" as="geometry" />
        </mxCell>
        <mxCell id="4zgrldXNc7t2MQxLVz2h-68" value="&lt;font style=&quot;font-size: 19px;&quot;&gt;&lt;b&gt;2 7 10 12&lt;br&gt;&lt;/b&gt;&lt;/font&gt;" style="text;html=1;align=center;verticalAlign=middle;whiteSpace=wrap;rounded=0;" vertex="1" parent="1">
          <mxGeometry x="1428" y="669" width="100" height="30" as="geometry" />
        </mxCell>
        <mxCell id="4zgrldXNc7t2MQxLVz2h-69" value="&lt;font style=&quot;font-size: 19px;&quot;&gt;&lt;b&gt;&lt;span style=&quot;color: rgb(255, 0, 0);&quot;&gt;21&lt;/span&gt; 2 7 10 12&lt;br&gt;&lt;/b&gt;&lt;/font&gt;" style="text;html=1;align=center;verticalAlign=middle;whiteSpace=wrap;rounded=0;" vertex="1" parent="1">
          <mxGeometry x="1435" y="861" width="129" height="30" as="geometry" />
        </mxCell>
        <mxCell id="4zgrldXNc7t2MQxLVz2h-70" value="&lt;font style=&quot;font-size: 19px;&quot;&gt;&lt;b&gt;32 44&lt;br&gt;&lt;/b&gt;&lt;/font&gt;" style="text;html=1;align=center;verticalAlign=middle;whiteSpace=wrap;rounded=0;" vertex="1" parent="1">
          <mxGeometry x="1218" y="1061" width="126" height="30" as="geometry" />
        </mxCell>
        <mxCell id="4zgrldXNc7t2MQxLVz2h-71" value="&lt;font style=&quot;font-size: 19px;&quot;&gt;&lt;b&gt;2 7 10 12&lt;br&gt;&lt;/b&gt;&lt;/font&gt;" style="text;html=1;align=center;verticalAlign=middle;whiteSpace=wrap;rounded=0;" vertex="1" parent="1">
          <mxGeometry x="1435" y="1061" width="129" height="30" as="geometry" />
        </mxCell>
        <mxCell id="4zgrldXNc7t2MQxLVz2h-73" value="" style="endArrow=classic;html=1;rounded=0;fontSize=16;strokeWidth=2;" edge="1" parent="1">
          <mxGeometry width="50" height="50" relative="1" as="geometry">
            <mxPoint x="500" y="1264" as="sourcePoint" />
            <mxPoint x="1192" y="1260" as="targetPoint" />
          </mxGeometry>
        </mxCell>
        <mxCell id="4zgrldXNc7t2MQxLVz2h-74" value="&lt;font style=&quot;font-size: 25px;&quot;&gt;&lt;b&gt;&lt;span style=&quot;color: rgb(22, 255, 38);&quot;&gt;PUSH&amp;nbsp; A&lt;br&gt;&lt;/span&gt;&lt;/b&gt;&lt;/font&gt;" style="text;html=1;align=center;verticalAlign=middle;whiteSpace=wrap;rounded=0;" vertex="1" parent="1">
          <mxGeometry x="823" y="1201" width="153" height="44" as="geometry" />
        </mxCell>
        <mxCell id="4zgrldXNc7t2MQxLVz2h-87" value="&lt;b&gt;&lt;span style=&quot;color: rgb(255, 128, 0);&quot;&gt;SWAP&lt;/span&gt;&lt;/b&gt;" style="text;html=1;align=center;verticalAlign=middle;resizable=0;points=[];autosize=1;strokeColor=none;fillColor=none;" vertex="1" parent="1">
          <mxGeometry x="365.5" y="947" width="54" height="26" as="geometry" />
        </mxCell>
        <mxCell id="4zgrldXNc7t2MQxLVz2h-88" value="" style="endArrow=classic;html=1;rounded=0;" edge="1" parent="1">
          <mxGeometry width="50" height="50" relative="1" as="geometry">
            <mxPoint x="393" y="973" as="sourcePoint" />
            <mxPoint x="393.5" y="1038" as="targetPoint" />
          </mxGeometry>
        </mxCell>
        <mxCell id="4zgrldXNc7t2MQxLVz2h-90" value="" style="endArrow=classic;html=1;rounded=0;strokeWidth=2;" edge="1" parent="1">
          <mxGeometry width="50" height="50" relative="1" as="geometry">
            <mxPoint x="880" y="1290" as="sourcePoint" />
            <mxPoint x="880" y="1446" as="targetPoint" />
          </mxGeometry>
        </mxCell>
        <mxCell id="4zgrldXNc7t2MQxLVz2h-91" value="&lt;b&gt;&lt;font style=&quot;font-size: 23px;&quot;&gt;2 7 10 12 21 32 44&lt;br&gt;&lt;/font&gt;&lt;/b&gt;" style="text;html=1;align=center;verticalAlign=middle;whiteSpace=wrap;rounded=0;" vertex="1" parent="1">
          <mxGeometry x="749" y="1496" width="280" height="30" as="geometry" />
        </mxCell>
        <mxCell id="4zgrldXNc7t2MQxLVz2h-93" value="" style="endArrow=classic;html=1;rounded=0;exitX=0.487;exitY=0.994;exitDx=0;exitDy=0;exitPerimeter=0;strokeWidth=2;" edge="1" parent="1">
          <mxGeometry width="50" height="50" relative="1" as="geometry">
            <mxPoint x="934" y="285" as="sourcePoint" />
            <mxPoint x="844" y="387" as="targetPoint" />
            <Array as="points">
              <mxPoint x="921" y="300" />
            </Array>
          </mxGeometry>
        </mxCell>
        <mxCell id="4zgrldXNc7t2MQxLVz2h-94" value="&lt;font style=&quot;font-size: 16px;&quot;&gt;&lt;b&gt;&lt;span style=&quot;color: rgb(22, 255, 38);&quot;&gt;PUSH B&lt;/span&gt;&lt;/b&gt;&lt;/font&gt;" style="text;html=1;align=center;verticalAlign=middle;whiteSpace=wrap;rounded=0;" vertex="1" parent="1">
          <mxGeometry x="812" y="279" width="73" height="30" as="geometry" />
        </mxCell>
      </root>
    </mxGraphModel>
  </diagram>
</mxfile>
